<svg xmlns="http://www.w3.org/2000/svg" xmlns:xlink="http://www.w3.org/1999/xlink" width="500" height="500">
<defs>
  <path id="face1" d="M0 0h121v18H0z" />
  <path id="face2" d="M0 0h46v46H0z" />
  <path id="think" d="M0 0s1.265.411 1.429 1.352c.173.971-.624 1.167-.624 1.167s1.041.208 1.172 1.376c.123 1.1-.862 1.363-.862 1.363s.97.4 1.016 1.539c.038.959-.995 1.428-.995 1.428s5.038 1.22 5.555 1.34c.516.121 1.321.616 1.07 1.695-.249 1.08-1.204 1.118-1.698 1.003-.494-.116-6.744-1.567-8.9-2.069-.23-.053-1.308-.302-1.439-.334-.54-.127-.785.111-.405.512.509.536.833 1.129.947 2.113.119 1.036-.232 2.314-.433 2.809-.374.921-1.005 1.649-1.734 1.899-1.138.39-1.946-.321-1.542-1.561.604-1.855.209-3.375-.833-4.293-2.449-2.157-3.589-3.695-2.83-6.973.827-3.575 4.377-5.876 7.952-5.048C-2.965-.64 0 0 0 0" transform="matrix(11.5 0 0 -11.5 178.25 270)" />
</defs>
<use xlink:href="#face1" fill="#1a3054" x="130" y="114" />
<use xlink:href="#face2" fill="#1a3054" x="160" y="40" />
<path fill="#377ef0" d="M248.366 4.45c-124.742 0-116.952 54.095-116.952 54.095l.14 56.043H250.59v16.826H84.27S4.45 122.362 4.45 248.227c0 125.865 69.67 121.401 69.67 121.401h41.58v-58.406s-2.241-69.67 68.558-69.67h118.064s66.333 1.072 66.333-64.108V69.67s10.07-65.22-120.29-65.22zm-65.638 37.686c11.843 0 21.416 9.572 21.416 21.416 0 11.843-9.573 21.415-21.416 21.415s-21.416-9.572-21.416-21.415c0-11.844 9.573-21.416 21.416-21.416z" />
<use xlink:href="#face1" fill="#5f3b0c" x="248" y="366" />
<use xlink:href="#face2" fill="#5f3b0c" x="294" y="412" />
<path fill="#f8c63d" d="M251.908 493.265c124.742 0 116.952-54.095 116.952-54.095l-.14-56.042H249.684V366.3h166.319s79.822 9.053 79.822-116.812-69.67-121.402-69.67-121.402h-41.58v58.406s2.241 69.67-68.558 69.67H197.952s-66.333-1.072-66.333 64.108v107.774s-10.071 65.22 120.29 65.22zm65.638-37.686c-11.844 0-21.416-9.572-21.416-21.415 0-11.844 9.572-21.416 21.416-21.416 11.843 0 21.415 9.572 21.415 21.416 0 11.843-9.572 21.415-21.415 21.415z" />
<use xlink:href="#think" fill="#3aceff" />
<use xlink:href="#think" fill="#f38f0c" transform="rotate(180 250 250)" />
</svg>
